<svg xmlns="http://www.w3.org/2000/svg" viewBox="0 0 68 68" width="256" height="256"><path d="M5.5 44.4c.3 0 .5-.2.5-.5V32.8c0-.3-.2-.5-.5-.5s-.5.2-.5.5v11.1c0 .3.2.5.5.5zm0-15.5c.3 0 .5-.2.5-.5v-5c0-.3-.2-.5-.5-.5s-.5.2-.5.5v5c0 .3.2.5.5.5zm48.2-9.5c1 0 1.7-.8 1.7-1.7 0-.9-.8-1.7-1.7-1.7s-1.7.7-1.7 1.7c0 .9.7 1.7 1.7 1.7zm0-2.4c.4 0 .7.3.7.7 0 .4-.3.7-.7.7s-.7-.3-.7-.7c0-.4.3-.7.7-.7z" fill="#000000" class="color000 svgShape"></path><path d="M8.2 60.5h51.1c.3 0 .5-.2.5-.5v-3.8c0-.3-.2-.5-.5-.5s-.5.2-.5.5v3.3H43.3l2.9-4.3c0-.1.1-.1.1-.2l3-13.3h3.8v1.6c0 .3.2.5.5.5s.5-.2.5-.5v-1.6H58l2.9 12.8c.3 1 1.3 1.7 2.5 1.5l.9 3.6c.1.3.3.4.6.4.3-.1.4-.3.4-.6l-.9-3.7c1-.6 1.4-1.8 1-2.8l-2.6-11.2h2.7c.3 0 .5-.2.5-.5s-.2-.5-.5-.5h-2.8l-5-21.7c.2-.4.3-.9.3-1.4 0-1.3-.6-2.5-1.6-3.3V10c0-1.4-1.2-2.6-2.6-2.6-1.4 0-2.6 1.2-2.6 2.6v4.3c-1 .8-1.6 2-1.6 3.3 0 .6.1 1.1.3 1.6L45 40.8h-2.9c-.3 0-.5.2-.5.5s.2.5.5.5h2.7l-3 12.2v.2l.3 5.3H8.2c-2.9 0-5.2-2.3-5.2-5.2v-.7c1.6-4.3 7.4-4.5 9.4-.8v.1c.1.3.3.5.4.8.1.2.3.4.6.3.1 0 .2-.1.3-.2.1-.1.1-.2.1-.3V15.7h33.4c.3 0 .5-.2.5-.5s-.2-.5-.5-.5H13.8v-.9c0-3.4-2.6-6.1-5.9-6.1h-.6c-3 .3-5.3 3-5.3 6.1v40.4c0 3.5 2.8 6.3 6.2 6.3zM45 55.3l-2 2.8-.2-3.3 2.2.5zm9.2-14.5v-1.6c0-.3-.2-.5-.5-.5s-.5.2-.5.5v1.6h-3.6l4.1-18 4.1 18h-3.6zm2.7-20.4 7.6 32.9c.3.7-.1 1.5-.8 1.8-.6.3-1.5-.1-1.7-.8l-7.4-32.5c.1 0 .2-.1.3-.1.2 0 .3-.1.5-.1.1 0 .2-.1.3-.1.1-.1.3-.1.4-.2.1-.1.2-.1.2-.2.1-.1.2-.2.4-.3l.2-.2c-.1-.1-.1-.2 0-.2zm-4.8-6.6v-3.7c0-.9.7-1.6 1.6-1.6.9 0 1.6.7 1.6 1.6v3.7c-.2-.1-.5-.2-.8-.2h-.2c-.2 0-.4-.1-.6-.1-.3 0-.6 0-.8.1-.1 0-.3.1-.4.1-.2 0-.3 0-.4.1zm-.2 1.2.1-.1c.1-.1.2-.1.3-.2.1 0 .2-.1.3-.1h.2c.6-.2 1.2-.2 1.8 0h.1c.1 0 .2.1.3.1.1 0 .2.1.3.2 0 0 .1.1.2.1.8.6 1.4 1.5 1.4 2.6 0 .4-.1.8-.2 1.2 0 .1-.1.1-.1.2-.1.1-.1.2-.2.3l-.1.1c-.3.6-.8 1-1.3 1.2h-.1c-.2.1-.3.1-.5.2h-.7c-.4 0-.9-.1-1.2-.2-.6-.2-1-.6-1.4-1.1-.3-.5-.5-1.1-.5-1.8-.1-1.1.4-2.1 1.3-2.7zm-1.2 5.7c.2.2.3.3.5.4h.1l.6.3h.1c.2.1.5.2.7.2h.1l-7.4 32.5-2.6-.6 7.6-33.3c.2.3.2.4.3.5 0-.1 0 0 0 0zM3 13.8c0-2.6 1.9-4.8 4.4-5h.5c2.7 0 4.9 2.3 4.9 5.1v37.6c-2.5-3.2-7.4-3.1-9.8 0V13.8z" fill="#000000" class="color000 svgShape"></path><path d="M37 26.7h1.7c.2 0 .4-.1.5-.3s0-.4-.2-.6l-10.7-7.6c-.2-.1-.4-.1-.6 0L17 25.8c-.2.1-.3.4-.2.6.1.2.3.3.5.3H19v14.5c0 .3.2.5.5.5h17c.3 0 .5-.2.5-.5V26.7zm-9-7.5 9.1 6.5H18.9l9.1-6.5zm8 21.5H20v-14h16v14zm-14.5 4.5c0-.3-.2-.5-.5-.5h-3.7c-.3 0-.5.2-.5.5v3.7c0 .3.2.5.5.5H21c.3 0 .5-.2.5-.5v-3.7zm-1 3.2h-2.7v-2.7h2.7v2.7zm15.8 0H24.1c-.3 0-.5.2-.5.5s.2.5.5.5h12.2c.3 0 .5-.2.5-.5s-.2-.5-.5-.5zm-12.2-2h7.1c.3 0 .5-.2.5-.5s-.2-.5-.5-.5h-7.1c-.3 0-.5.2-.5.5s.3.5.5.5zm-3.1 6h-3.7c-.3 0-.5.2-.5.5v3.7c0 .3.2.5.5.5H21c.3 0 .5-.2.5-.5v-3.7c0-.3-.2-.5-.5-.5zm-.5 3.7h-2.7v-2.7h2.7v2.7zm3.6 1h12.2c.3 0 .5-.2.5-.5s-.2-.5-.5-.5H24.1c-.3 0-.5.2-.5.5s.3.5.5.5zm0-3h7.1c.3 0 .5-.2.5-.5s-.2-.5-.5-.5h-7.1c-.3 0-.5.2-.5.5s.3.5.5.5z" fill="#000000" class="color000 svgShape"></path></svg>
